<svg xmlns="http://www.w3.org/2000/svg" version="1.1" xmlns:xlink="http://www.w3.org/1999/xlink" xmlns:svgjs="http://svgjs.dev/svgjs" width="2000" height="702" viewBox="0 0 2000 702"><g transform="matrix(1,0,0,1,-1.2121089588277982,-1.1726172912680113)"><svg viewBox="0 0 396 139" data-background-color="#102e44" preserveAspectRatio="xMidYMid meet" height="702" width="2000" xmlns="http://www.w3.org/2000/svg" xmlns:xlink="http://www.w3.org/1999/xlink"><g id="tight-bounds" transform="matrix(1,0,0,1,0.24000301276123537,0.23218490525107427)"><svg viewBox="0 0 395.52 138.53563018949785" height="138.53563018949785" width="395.52"><g><svg viewBox="0 0 665.1322688351936 232.9705653884862" height="138.53563018949785" width="395.52"><g transform="matrix(1,0,0,1,0,32.197813306223495)"><svg viewBox="0 0 395.52000000000004 168.5749387760392" height="168.5749387760392" width="395.52000000000004"><g id="textblocktransform"><svg viewBox="0 0 395.52000000000004 168.5749387760392" height="168.5749387760392" width="395.52000000000004" id="textblock"><g><svg viewBox="0 0 395.52000000000004 119.36124541497371" height="119.36124541497371" width="395.52000000000004"><g transform="matrix(1,0,0,1,0,0)"><svg width="395.52000000000004" viewBox="2.1911805611129997 -35.55 158.875120440615 47.949999999999996" height="119.36124541497371" data-palette-color="#ffffff"><path d="M13.38 0.59L13.38 0.59Q10.28 0.59 8.24 0.02 6.2-0.54 4.97-1.38 3.74-2.22 3.08-3.05L3.08-3.05Q2.86-3.37 2.69-3.66 2.51-3.96 2.44-4.32L2.44-4.32Q2.34-4.81 2.25-5.6 2.15-6.4 2.22-7.45L2.22-7.45Q2.25-7.89 2.39-8.06L2.39-8.06Q2.56-8.25 2.95-8.35L2.95-8.35Q3.66-8.52 4.8-8.65 5.93-8.79 6.42-8.79L6.42-8.79Q6.93-8.79 7.25-8.59 7.57-8.4 8.01-7.93L8.01-7.93Q8.5-7.42 9.69-6.63 10.89-5.83 13.38-5.83L13.38-5.83Q15.77-5.83 16.99-6.84 18.21-7.84 18.21-9.62L18.21-9.62Q18.21-10.57 17.64-11.41 17.07-12.26 15.55-13.1 14.04-13.94 11.23-14.87L11.23-14.87Q6.59-16.43 4.54-18.75 2.49-21.07 2.49-25.2L2.49-25.2Q2.49-28.61 4.15-30.91 5.81-33.2 8.74-34.38 11.67-35.55 15.5-35.55L15.5-35.55Q18.46-35.55 20.4-34.85 22.34-34.16 23.41-33.29 24.49-32.42 24.8-31.88L24.8-31.88Q25-31.57 25.06-31.41 25.12-31.25 25.15-30.98L25.15-30.98Q25.22-30.22 25.2-29.3 25.17-28.37 25.02-27.2L25.02-27.2Q24.95-26.81 24.76-26.66L24.76-26.66Q24.58-26.54 24.22-26.54L24.22-26.54Q21.85-26.49 20.56-26.78L20.56-26.78Q20.04-26.9 19.87-27.03 19.7-27.15 19.43-27.42L19.43-27.42Q19.04-27.88 18.2-28.5 17.36-29.13 15.5-29.13L15.5-29.13Q12.94-29.13 11.87-27.97 10.79-26.81 10.79-25.37L10.79-25.37Q10.79-23.66 12.38-22.69 13.96-21.73 17.38-20.51L17.38-20.51Q20.24-19.51 22.29-18.33 24.34-17.16 25.43-15.33 26.51-13.5 26.51-10.5L26.51-10.5Q26.51-6.76 24.79-4.3 23.07-1.83 20.1-0.62 17.14 0.59 13.38 0.59ZM47.56-25.61L47.56-25.61Q51.12-25.61 53.43-24.01 55.73-22.41 56.87-19.62 58.01-16.82 58.01-13.21L58.01-13.21Q58.01-9.3 56.67-6.18 55.34-3.05 52.76-1.22 50.17 0.61 46.34 0.61L46.34 0.61Q44.36 0.61 43.08 0.16 41.79-0.29 41.03-0.92 40.26-1.54 39.82-2.05L39.82-2.05 39.72-2.05 39.72 8.35Q39.72 8.94 39.48 9.25L39.48 9.25Q38.45 10.6 36.47 12.16L36.47 12.16Q36.13 12.4 35.86 12.4L35.86 12.4Q35.57 12.4 35.25 12.16L35.25 12.16Q34.2 11.35 33.48 10.64 32.76 9.94 32.25 9.25L32.25 9.25Q32 8.94 32 8.35L32 8.35 32-21.75Q32-22.34 32.25-22.66L32.25-22.66Q32.76-23.34 33.48-24.05 34.2-24.76 35.25-25.56L35.25-25.56Q35.57-25.81 35.91-25.81L35.91-25.81Q36.23-25.81 36.57-25.56L36.57-25.56Q37.6-24.76 38.33-24.02 39.06-23.29 39.62-22.51L39.62-22.51 39.74-22.51Q40.16-23.02 41.01-23.75 41.87-24.49 43.44-25.05 45.02-25.61 47.56-25.61ZM44.55-5.62L44.55-5.62Q47.19-5.62 48.64-7.46 50.1-9.3 50.1-12.79L50.1-12.79Q50.1-19.38 44.68-19.38L44.68-19.38Q42.38-19.38 41.28-18.44 40.18-17.5 39.72-16.46L39.72-16.46 39.72-11.16Q39.72-8.79 40.94-7.2 42.16-5.62 44.55-5.62ZM70.97-22.17L70.97-20.36 71.06-20.36Q72.9-25.44 77.66-25.44L77.66-25.44Q78.27-25.44 78.66-25.38 79.05-25.32 79.19-25.27L79.19-25.27Q79.56-25.15 79.56-24.71L79.56-24.71 79.56-18.82Q79.56-18.07 78.68-18.41L78.68-18.41Q78.39-18.53 77.84-18.66 77.29-18.8 76.31-18.8L76.31-18.8Q73.8-18.8 72.38-16.96 70.97-15.11 70.97-11.94L70.97-11.94 70.97-1.29Q70.97-0.56 70.66-0.28 70.36 0 69.62 0L69.62 0 64.59 0Q63.86 0 63.56-0.28 63.25-0.56 63.25-1.29L63.25-1.29 63.25-21.75Q63.25-22.34 63.5-22.66L63.5-22.66Q64.01-23.34 64.73-24.05 65.45-24.76 66.5-25.56L66.5-25.56Q66.69-25.71 66.89-25.76 67.08-25.81 67.23-25.81L67.23-25.81Q67.57-25.81 67.91-25.56L67.91-25.56Q69.94-23.97 70.75-22.85L70.75-22.85Q70.97-22.56 70.97-22.17L70.97-22.17ZM95.18 0.61L95.18 0.61Q89.03 0.61 85.44-2.66 81.85-5.93 81.85-12.4L81.85-12.4Q81.85-19.04 85.58-22.33 89.3-25.61 95.52-25.61L95.52-25.61Q101.53-25.61 105.14-22.38 108.76-19.14 108.76-12.84L108.76-12.84Q108.76-6.27 105.14-2.83 101.53 0.61 95.18 0.61ZM95.43-5.3L95.43-5.3Q98.11-5.3 99.48-6.97 100.85-8.64 100.85-12.7L100.85-12.7Q100.85-16.55 99.47-18.13 98.09-19.7 95.38-19.7L95.38-19.7Q92.77-19.7 91.26-18.01 89.76-16.31 89.76-12.5L89.76-12.5Q89.76-8.52 91.19-6.91 92.62-5.3 95.43-5.3ZM122.72 0.61L122.72 0.61Q114.03 0.61 114.03-9.91L114.03-9.91 114-22.31Q114-22.9 114.25-23.22L114.25-23.22Q115.27-24.56 117.25-26.12L117.25-26.12Q117.59-26.37 117.86-26.37L117.86-26.37Q118.18-26.37 118.47-26.12L118.47-26.12Q119.52-25.32 120.24-24.61 120.96-23.9 121.47-23.22L121.47-23.22Q121.72-22.9 121.72-22.31L121.72-22.31 121.72-10.6Q121.72-5.3 125.92-5.3L125.92-5.3Q127.99-5.3 129.24-6.75 130.48-8.2 130.48-10.69L130.48-10.69 130.48-22.31Q130.48-22.9 130.73-23.22L130.73-23.22Q131.75-24.56 133.73-26.12L133.73-26.12Q134.07-26.37 134.34-26.37L134.34-26.37Q134.66-26.37 134.95-26.12L134.95-26.12Q136-25.32 136.72-24.61 137.44-23.9 137.95-23.22L137.95-23.22Q138.2-22.9 138.2-22.31L138.2-22.31 138.2-1.12Q138.2-0.66 137.88-0.33 137.56 0 137.07 0L137.07 0 133.41 0Q133.02 0 132.72-0.11 132.41-0.22 132.14-0.54L132.14-0.54 130.63-2.49 130.46-2.49Q130.07-1.93 129.25-1.2 128.43-0.46 126.88 0.07 125.33 0.61 122.72 0.61ZM154.68 0.61L154.68 0.61Q146.52 0.61 146.52-7.86L146.52-7.86 146.52-19.31 143.76-19.31Q143.03-19.31 142.75-19.62 142.47-19.92 142.47-20.65L142.47-20.65 142.47-23.66Q142.47-24.39 142.75-24.69 143.03-25 143.76-25L143.76-25 146.52-25 146.52-28.93Q146.52-29.52 146.76-29.83L146.76-29.83Q147.79-31.18 149.77-32.74L149.77-32.74Q150.11-32.98 150.38-32.98L150.38-32.98Q150.67-32.98 150.96-32.74L150.96-32.74Q152.01-31.93 152.73-31.23 153.45-30.52 153.97-29.83L153.97-29.83Q154.21-29.52 154.21-28.93L154.21-28.93 154.21-25 158.53-25Q159.26-25 159.55-24.69 159.83-24.39 159.83-23.66L159.83-23.66 159.83-20.65Q159.83-19.92 159.55-19.62 159.26-19.31 158.53-19.31L158.53-19.31 154.21-19.31 154.21-9.2Q154.21-5.3 157.04-5.3L157.04-5.3Q157.48-5.3 157.85-5.38 158.22-5.47 158.48-5.57L158.48-5.57Q159-5.76 159.2-5.71 159.41-5.66 159.58-5.18L159.58-5.18 161-1.39Q161.22-0.78 160.71-0.51L160.71-0.51Q160.34-0.34 158.94 0.13 157.53 0.61 154.68 0.61Z" opacity="1" transform="matrix(1,0,0,1,0,0)" fill="#ffffff" class="wordmark-text-0" data-fill-palette-color="primary" id="text-0"></path></svg></g></svg></g><g transform="matrix(1,0,0,1,163.31020800000002,147.53957078755906)"><svg viewBox="0 0 232.20979200000002 21.035367988480168" height="21.035367988480168" width="232.20979200000002"><g transform="matrix(1,0,0,1,0,0)"><svg width="232.20979200000002" viewBox="2.63 -40.9 572.86 51.9" height="21.035367988480168" data-palette-color="#ffffff"><path d="M21.63 0.33L21.63 0.33Q15.38 0.33 11.15-1.65 6.93-3.63 4.78-7.76 2.63-11.9 2.63-18.43L2.63-18.43Q2.63-25.15 4.85-29.35 7.08-33.55 11.15-35.51 15.23-37.48 20.78-37.48L20.78-37.48Q22.88-37.48 24.94-37.2 27-36.93 29.05-36.38L29.05-36.38 29.05-32.85Q26.8-33.48 24.85-33.71 22.9-33.95 21-33.95L21-33.95Q16.6-33.95 13.44-32.45 10.28-30.95 8.58-27.55 6.88-24.15 6.88-18.43L6.88-18.43Q6.88-13 8.5-9.64 10.13-6.28 13.35-4.73 16.57-3.18 21.38-3.18L21.38-3.18Q23.18-3.18 24.74-3.33 26.3-3.48 27.65-3.73L27.65-3.73 26.05-2.05 26.05-18 29.9-18 29.9-0.4Q27.55-0.03 25.6 0.15 23.65 0.33 21.63 0.33ZM41.45 0L37.45 0 37.45-27.13 40.8-27.13 41.12-23.5 41.37-23.5Q42.77-25.43 44.89-26.41 47-27.4 49.3-27.4L49.3-27.4Q49.92-27.4 50.44-27.35 50.95-27.3 51.45-27.2L51.45-27.2 51.45-23.5Q50.87-23.6 50.31-23.63 49.75-23.65 49.1-23.65L49.1-23.65Q47.77-23.65 46.34-23.24 44.9-22.83 43.62-21.96 42.35-21.1 41.45-19.8L41.45-19.8 41.45 0ZM64.97 0.48L64.97 0.48Q61.47 0.48 58.87-0.99 56.27-2.45 54.85-5.54 53.42-8.63 53.42-13.55L53.42-13.55Q53.42-18.43 54.83-21.53 56.25-24.63 58.85-26.09 61.45-27.55 64.97-27.55L64.97-27.55Q68.5-27.55 71.1-26.09 73.7-24.63 75.11-21.54 76.52-18.45 76.52-13.55L76.52-13.55Q76.52-8.68 75.08-5.58 73.65-2.48 71.06-1 68.47 0.48 64.97 0.48ZM64.97-2.78L64.97-2.78Q67.27-2.78 68.95-3.78 70.62-4.78 71.53-7.11 72.45-9.45 72.45-13.48L72.45-13.48Q72.45-17.57 71.53-19.94 70.62-22.3 68.93-23.29 67.25-24.28 64.97-24.28L64.97-24.28Q62.67-24.28 61-23.29 59.32-22.3 58.41-19.96 57.5-17.63 57.5-13.6L57.5-13.6Q57.5-9.53 58.41-7.16 59.32-4.8 61-3.79 62.67-2.78 64.97-2.78ZM92.44 0L87.72 0 79.77-27.13 83.69-27.13 90.47-3.48 90.07-3.48 97.14-27.13 101.87-27.13 108.94-3.48 108.49-3.48 115.29-27.13 119.07-27.13 111.17 0 106.44 0 99.24-23.93 99.69-23.93 92.44 0ZM144.44 11L140.44 11 144.61 0 145.89-2.88 154.84-27.13 158.86-27.13 144.44 11ZM147.29 0L143.46 0 133.19-27.13 137.46-27.13 147.29 0ZM173.01 0.48L173.01 0.48Q169.51 0.48 166.91-0.99 164.31-2.45 162.89-5.54 161.46-8.63 161.46-13.55L161.46-13.55Q161.46-18.43 162.87-21.53 164.29-24.63 166.89-26.09 169.49-27.55 173.01-27.55L173.01-27.55Q176.54-27.55 179.14-26.09 181.74-24.63 183.15-21.54 184.56-18.45 184.56-13.55L184.56-13.55Q184.56-8.68 183.12-5.58 181.69-2.48 179.1-1 176.51 0.48 173.01 0.48ZM173.01-2.78L173.01-2.78Q175.31-2.78 176.99-3.78 178.66-4.78 179.57-7.11 180.49-9.45 180.49-13.48L180.49-13.48Q180.49-17.57 179.57-19.94 178.66-22.3 176.97-23.29 175.29-24.28 173.01-24.28L173.01-24.28Q170.71-24.28 169.04-23.29 167.36-22.3 166.45-19.96 165.54-17.63 165.54-13.6L165.54-13.6Q165.54-9.53 166.45-7.16 167.36-4.8 169.04-3.79 170.71-2.78 173.01-2.78ZM199.06 0.45L199.06 0.45Q196.53 0.45 194.58-0.48 192.63-1.4 191.51-3.5 190.38-5.6 190.38-9.13L190.38-9.13 190.38-27.13 194.38-27.13 194.38-9.3Q194.38-5.83 195.93-4.46 197.48-3.1 199.93-3.1L199.93-3.1Q201.16-3.1 202.5-3.48 203.83-3.85 205.08-4.65 206.33-5.45 207.31-6.73L207.31-6.73 207.31-27.13 211.31-27.13 211.31 0 207.93 0 207.66-2.98 207.41-2.98Q205.71-1.28 203.56-0.41 201.41 0.45 199.06 0.45ZM222.86 0L218.86 0 218.86-27.13 222.21-27.13 222.53-23.5 222.78-23.5Q224.18-25.43 226.29-26.41 228.41-27.4 230.71-27.4L230.71-27.4Q231.33-27.4 231.84-27.35 232.36-27.3 232.86-27.2L232.86-27.2 232.86-23.5Q232.28-23.6 231.72-23.63 231.16-23.65 230.51-23.65L230.51-23.65Q229.18-23.65 227.74-23.24 226.31-22.83 225.03-21.96 223.76-21.1 222.86-19.8L222.86-19.8 222.86 0ZM254.93 0L250.95 0 250.95-31.23Q250.95-34.38 252.06-36.54 253.18-38.7 255.38-39.8 257.58-40.9 260.8-40.9L260.8-40.9Q261.73-40.9 262.66-40.83 263.6-40.75 264.5-40.6L264.5-40.6 264.5-37.25Q263.65-37.4 262.84-37.46 262.03-37.52 261.2-37.52L261.2-37.52Q258.03-37.52 256.48-36.13 254.93-34.73 254.93-31.4L254.93-31.4 254.93 0ZM263.45-23.83L245.85-23.83 245.85-27.13 263.45-27.13 263.45-23.83ZM271.95 0L267.95 0 267.95-27.13 271.95-27.13 271.95 0ZM269.95-33.02L269.95-33.02Q268.6-33.02 267.89-33.69 267.17-34.35 267.17-35.52L267.17-35.52Q267.17-36.73 267.89-37.4 268.6-38.08 269.95-38.08L269.95-38.08Q271.3-38.08 272.01-37.4 272.72-36.73 272.72-35.52L272.72-35.52Q272.72-34.35 272.01-33.69 271.3-33.02 269.95-33.02ZM283.52 0L279.52 0 279.52-27.13 282.9-27.13 283.17-24.08 283.45-24.08Q285.1-25.75 287.3-26.65 289.5-27.55 291.97-27.55L291.97-27.55Q294.52-27.55 296.48-26.61 298.45-25.68 299.56-23.56 300.67-21.45 300.67-17.93L300.67-17.93 300.67 0 296.7 0 296.7-17.75Q296.7-21.25 295.16-22.61 293.62-23.98 291-23.98L291-23.98Q289.8-23.98 288.45-23.63 287.1-23.28 285.81-22.48 284.52-21.68 283.52-20.35L283.52-20.35 283.52 0ZM314.67 0.45L314.67 0.45Q310.84 0.45 308.66-1.53 306.47-3.5 306.47-6.95L306.47-6.95Q306.47-10.5 308.81-12.49 311.14-14.48 316.32-14.98L316.32-14.98 323.59-15.75 323.97-13.1 316.57-12.3Q313.34-11.98 311.93-10.74 310.52-9.5 310.52-7.33L310.52-7.33Q310.52-5.05 311.82-3.85 313.12-2.65 315.69-2.65L315.69-2.65Q317.47-2.65 319.27-3.41 321.07-4.17 322.49-5.98L322.49-5.98 322.49-17.95Q322.49-20.45 321.72-21.81 320.94-23.18 319.39-23.73 317.84-24.28 315.49-24.28L315.49-24.28Q313.97-24.28 312.03-24 310.09-23.73 308.17-23.08L308.17-23.08 308.17-26.35Q309.92-26.93 312.03-27.24 314.14-27.55 316.02-27.55L316.02-27.55Q319.47-27.55 321.78-26.65 324.09-25.75 325.26-23.61 326.42-21.48 326.42-17.78L326.42-17.78 326.42 0 323.07 0 322.77-3.03 322.52-3.03Q321.19-1.35 319.13-0.45 317.07 0.45 314.67 0.45ZM337.69 0L333.69 0 333.69-27.13 337.07-27.13 337.34-24.08 337.62-24.08Q339.27-25.75 341.47-26.65 343.67-27.55 346.14-27.55L346.14-27.55Q348.69-27.55 350.65-26.61 352.62-25.68 353.73-23.56 354.84-21.45 354.84-17.93L354.84-17.93 354.84 0 350.87 0 350.87-17.75Q350.87-21.25 349.33-22.61 347.79-23.98 345.17-23.98L345.17-23.98Q343.97-23.98 342.62-23.63 341.27-23.28 339.98-22.48 338.69-21.68 337.69-20.35L337.69-20.35 337.69 0ZM372.69 0.48L372.69 0.48Q368.84 0.48 366.16-0.99 363.49-2.45 362.09-5.54 360.69-8.63 360.69-13.55L360.69-13.55Q360.69-18.48 362.2-21.56 363.71-24.65 366.61-26.1 369.51-27.55 373.71-27.55L373.71-27.55Q375.14-27.55 376.56-27.38 377.99-27.2 379.29-26.85L379.29-26.85 379.29-23.45Q377.96-23.8 376.68-23.98 375.39-24.15 374.14-24.15L374.14-24.15Q371.01-24.15 368.94-23.13 366.86-22.1 365.85-19.8 364.84-17.5 364.84-13.65L364.84-13.65Q364.84-9.7 365.79-7.35 366.74-5 368.63-3.96 370.51-2.93 373.26-2.93L373.26-2.93Q374.59-2.93 376.04-3.19 377.49-3.45 379.29-4.03L379.29-4.03 379.29-0.65Q377.69-0.08 376.03 0.2 374.36 0.48 372.69 0.48ZM388.16 0L384.16 0 384.16-27.13 388.16-27.13 388.16 0ZM386.16-33.02L386.16-33.02Q384.81-33.02 384.1-33.69 383.39-34.35 383.39-35.52L383.39-35.52Q383.39-36.73 384.1-37.4 384.81-38.08 386.16-38.08L386.16-38.08Q387.51-38.08 388.22-37.4 388.94-36.73 388.94-35.52L388.94-35.52Q388.94-34.35 388.22-33.69 387.51-33.02 386.16-33.02ZM402.46 0.45L402.46 0.45Q398.63 0.45 396.45-1.53 394.26-3.5 394.26-6.95L394.26-6.95Q394.26-10.5 396.6-12.49 398.93-14.48 404.11-14.98L404.11-14.98 411.38-15.75 411.76-13.1 404.36-12.3Q401.13-11.98 399.72-10.74 398.31-9.5 398.31-7.33L398.31-7.33Q398.31-5.05 399.61-3.85 400.91-2.65 403.48-2.65L403.48-2.65Q405.26-2.65 407.06-3.41 408.86-4.17 410.28-5.98L410.28-5.98 410.28-17.95Q410.28-20.45 409.51-21.81 408.73-23.18 407.18-23.73 405.63-24.28 403.28-24.28L403.28-24.28Q401.76-24.28 399.82-24 397.88-23.73 395.96-23.08L395.96-23.08 395.96-26.35Q397.71-26.93 399.82-27.24 401.93-27.55 403.81-27.55L403.81-27.55Q407.26-27.55 409.57-26.65 411.88-25.75 413.05-23.61 414.21-21.48 414.21-17.78L414.21-17.78 414.21 0 410.86 0 410.56-3.03 410.31-3.03Q408.98-1.35 406.92-0.45 404.86 0.45 402.46 0.45ZM425.48 0L421.48 0 421.48-40.4 425.48-40.4 425.48 0ZM451.03 0L447.05 0 447.05-31.23Q447.05-34.38 448.16-36.54 449.28-38.7 451.48-39.8 453.68-40.9 456.9-40.9L456.9-40.9Q457.83-40.9 458.76-40.83 459.7-40.75 460.6-40.6L460.6-40.6 460.6-37.25Q459.75-37.4 458.94-37.46 458.13-37.52 457.3-37.52L457.3-37.52Q454.13-37.52 452.58-36.13 451.03-34.73 451.03-31.4L451.03-31.4 451.03 0ZM459.55-23.83L441.95-23.83 441.95-27.13 459.55-27.13 459.55-23.83ZM471.25 0.45L471.25 0.45Q468.72 0.45 466.77-0.48 464.82-1.4 463.7-3.5 462.57-5.6 462.57-9.13L462.57-9.13 462.57-27.13 466.57-27.13 466.57-9.3Q466.57-5.83 468.12-4.46 469.67-3.1 472.12-3.1L472.12-3.1Q473.35-3.1 474.69-3.48 476.02-3.85 477.27-4.65 478.52-5.45 479.5-6.73L479.5-6.73 479.5-27.13 483.5-27.13 483.5 0 480.12 0 479.85-2.98 479.6-2.98Q477.9-1.28 475.75-0.41 473.6 0.45 471.25 0.45ZM501.55 0.48L501.55 0.48Q497.4 0.48 495.1-1.66 492.8-3.8 492.8-8.5L492.8-8.5 492.8-27.13 493.45-37 496.8-37 496.8-9.15Q496.8-5.73 498.21-4.35 499.62-2.98 502.42-2.98L502.42-2.98Q503.17-2.98 503.97-3.09 504.77-3.2 505.72-3.4L505.72-3.4 505.72-0.03Q504.72 0.23 503.67 0.35 502.62 0.48 501.55 0.48ZM505.32-23.83L487.7-23.83 487.7-27.13 505.32-27.13 505.32-23.83ZM518.29 0.45L518.29 0.45Q515.77 0.45 513.82-0.48 511.87-1.4 510.74-3.5 509.62-5.6 509.62-9.13L509.62-9.13 509.62-27.13 513.62-27.13 513.62-9.3Q513.62-5.83 515.17-4.46 516.72-3.1 519.17-3.1L519.17-3.1Q520.39-3.1 521.73-3.48 523.07-3.85 524.32-4.65 525.57-5.45 526.54-6.73L526.54-6.73 526.54-27.13 530.54-27.13 530.54 0 527.17 0 526.89-2.98 526.64-2.98Q524.94-1.28 522.79-0.41 520.64 0.45 518.29 0.45ZM542.09 0L538.09 0 538.09-27.13 541.44-27.13 541.77-23.5 542.02-23.5Q543.42-25.43 545.53-26.41 547.64-27.4 549.94-27.4L549.94-27.4Q550.57-27.4 551.08-27.35 551.59-27.3 552.09-27.2L552.09-27.2 552.09-23.5Q551.52-23.6 550.95-23.63 550.39-23.65 549.74-23.65L549.74-23.65Q548.42-23.65 546.98-23.24 545.54-22.83 544.27-21.96 542.99-21.1 542.09-19.8L542.09-19.8 542.09 0ZM566.91 0.48L566.91 0.48Q562.69 0.48 559.83-0.96 556.96-2.4 555.51-5.49 554.06-8.58 554.06-13.58L554.06-13.58Q554.06-18.35 555.4-21.45 556.74-24.55 559.2-26.05 561.66-27.55 565.04-27.55L565.04-27.55Q568.36-27.55 570.7-26.04 573.04-24.53 574.26-21.41 575.49-18.3 575.49-13.48L575.49-13.48 575.49-12.25 556.24-12.25 556.24-14.98 572.54-14.98 571.66-14.38Q571.66-18.18 570.88-20.43 570.09-22.68 568.6-23.66 567.11-24.65 564.99-24.65L564.99-24.65Q562.89-24.65 561.34-23.68 559.79-22.7 558.95-20.45 558.11-18.2 558.11-14.38L558.11-14.38 558.11-12.98Q558.11-9.22 559.13-6.99 560.14-4.75 562.19-3.76 564.24-2.78 567.39-2.78L567.39-2.78Q568.94-2.78 570.6-3.06 572.26-3.35 574.14-3.88L574.14-3.88 574.14-0.6Q572.19-0.05 570.43 0.21 568.66 0.48 566.91 0.48Z" opacity="1" transform="matrix(1,0,0,1,0,0)" fill="#ffffff" class="slogan-text-1" data-fill-palette-color="secondary" id="text-1"></path></svg></g></svg></g></svg></g></svg></g><g transform="matrix(1,0,0,1,423.6983253725854,0)"><svg viewBox="0 0 241.43394346260823 232.9705653884862" height="232.9705653884862" width="241.43394346260823"><g><svg xmlns="http://www.w3.org/2000/svg" xmlns:xlink="http://www.w3.org/1999/xlink" version="1.1" x="0" y="0" viewBox="27.861915579507443 28.600000000000005 44.25120988422886 42.699999999999974" enable-background="new 0 0 100 100" xml:space="preserve" height="232.9705653884862" width="241.43394346260823" class="icon-icon-0" data-fill-palette-color="accent" id="icon-0"><g fill="#b2fcfb" data-fill-palette-color="accent"><path d="M63.9 36.4c-0.5-0.2-1.1 0.1-1.3 0.6-1.3 3.6-4.4 6.2-8.2 6.7-0.5 0.1-0.9 0.6-0.9 1.1 0.1 0.5 0.5 0.9 1 0.9 0 0 0.1 0 0.1 0 4.5-0.6 8.3-3.7 9.8-8C64.7 37.2 64.5 36.6 63.9 36.4z" fill="#b2fcfb" data-fill-palette-color="accent"></path><path d="M37.3 47c-0.2-0.5-0.8-0.8-1.3-0.6-0.5 0.2-0.8 0.8-0.6 1.3 1.5 4.3 5.3 7.4 9.8 8 0 0 0.1 0 0.1 0 0.5 0 0.9-0.4 1-0.9 0.1-0.5-0.3-1.1-0.9-1.1C41.7 53.2 38.6 50.6 37.3 47z" fill="#b2fcfb" data-fill-palette-color="accent"></path><path d="M71.5 65.5c-0.8-0.8-2.1-0.8-2.8 0-2 2-7.4 2.9-16.7-0.2 0-0.1 0-0.2 0-0.3v-5.9-1.8-6.2c10.2-0.1 18.4-8.4 18.4-18.7v-1.8c0-1.1-0.9-2-2-2h-1.8c-9.8 0-17.8 7.6-18.6 17.2-3.4-4.4-8.7-7.2-14.7-7.2h-1.8c-1.1 0-2 0.9-2 2v1.8c0 10.2 8.3 18.5 18.5 18.7v3c-10.2-2.5-18.5 0.8-18.9 0.9-1 0.4-1.5 1.6-1.1 2.6 0.4 1 1.6 1.5 2.6 1.1 0.1 0 9-3.5 19.1 0 5.4 1.9 9.5 2.6 12.8 2.6 5 0 7.7-1.7 9.1-3C72.3 67.5 72.3 66.3 71.5 65.5zM33.5 42.7c7.9 0.1 14.4 6.5 14.5 14.5C40.1 57 33.6 50.6 33.5 42.7zM66.4 32.7c-0.1 7.9-6.5 14.4-14.5 14.5C52.1 39.2 58.5 32.8 66.4 32.7z" fill="#b2fcfb" data-fill-palette-color="accent"></path></g></svg></g></svg></g></svg></g><defs></defs></svg><rect width="395.52" height="138.53563018949785" fill="none" stroke="none" visibility="hidden"></rect></g></svg></g></svg>