<svg xmlns="http://www.w3.org/2000/svg" version="1.1" xmlns:xlink="http://www.w3.org/1999/xlink"
    xmlns:svgjs="http://svgjs.dev/svgjs" width="128" height="128" viewBox="0 0 128 128">
    <g transform="matrix(0.8046875,0,0,0.8046875,12.760752631578946,14.5837718955229)"><svg viewBox="0 0 95 92"
            data-background-color="#102e44" preserveAspectRatio="xMidYMid meet" height="123" width="128"
            xmlns="http://www.w3.org/2000/svg" xmlns:xlink="http://www.w3.org/1999/xlink">
            <g id="tight-bounds" transform="matrix(1,0,0,1,-0.24049999999999727,-0.06697433433402011)"><svg
                    viewBox="0 0 95.481 92.13394866866804" height="92.13394866866804" width="95.481">
                    <g><svg viewBox="0 0 95.481 92.13394866866804" height="92.13394866866804" width="95.481">
                            <g><svg viewBox="0 0 95.481 92.13394866866804" height="92.13394866866804" width="95.481">
                                    <g id="textblocktransform"><svg viewBox="0 0 95.481 92.13394866866804"
                                            height="92.13394866866804" width="95.481" id="textblock">
                                            <g><svg viewBox="0 0 95.481 92.13394866866804" height="92.13394866866804"
                                                    width="95.481">
                                                    <g><svg viewBox="0 0 95.481 92.13394866866804"
                                                            height="92.13394866866804" width="95.481">
                                                            <g><svg xmlns="http://www.w3.org/2000/svg"
                                                                    xmlns:xlink="http://www.w3.org/1999/xlink"
                                                                    version="1.1" x="0" y="0"
                                                                    viewBox="27.861915579507443 28.600000000000005 44.25120988422886 42.699999999999974"
                                                                    enable-background="new 0 0 100 100"
                                                                    xml:space="preserve" height="92.13394866866804"
                                                                    width="95.481" class="icon-icon-0"
                                                                    data-fill-palette-color="accent" id="icon-0">
                                                                    <g fill="#116383" data-fill-palette-color="accent">
                                                                        <path
                                                                            d="M63.9 36.4c-0.5-0.2-1.1 0.1-1.3 0.6-1.3 3.6-4.4 6.2-8.2 6.7-0.5 0.1-0.9 0.6-0.9 1.1 0.1 0.5 0.5 0.9 1 0.9 0 0 0.1 0 0.1 0 4.5-0.6 8.3-3.7 9.8-8C64.7 37.2 64.5 36.6 63.9 36.4z"
                                                                            fill="#116383"
                                                                            data-fill-palette-color="accent"></path>
                                                                        <path
                                                                            d="M37.3 47c-0.2-0.5-0.8-0.8-1.3-0.6-0.5 0.2-0.8 0.8-0.6 1.3 1.5 4.3 5.3 7.4 9.8 8 0 0 0.1 0 0.1 0 0.5 0 0.9-0.4 1-0.9 0.1-0.5-0.3-1.1-0.9-1.1C41.7 53.2 38.6 50.6 37.3 47z"
                                                                            fill="#116383"
                                                                            data-fill-palette-color="accent"></path>
                                                                        <path
                                                                            d="M71.5 65.5c-0.8-0.8-2.1-0.8-2.8 0-2 2-7.4 2.9-16.7-0.2 0-0.1 0-0.2 0-0.3v-5.9-1.8-6.2c10.2-0.1 18.4-8.4 18.4-18.7v-1.8c0-1.1-0.9-2-2-2h-1.8c-9.8 0-17.8 7.6-18.6 17.2-3.4-4.4-8.7-7.2-14.7-7.2h-1.8c-1.1 0-2 0.9-2 2v1.8c0 10.2 8.3 18.5 18.5 18.7v3c-10.2-2.5-18.5 0.8-18.9 0.9-1 0.4-1.5 1.6-1.1 2.6 0.4 1 1.6 1.5 2.6 1.1 0.1 0 9-3.5 19.1 0 5.4 1.9 9.5 2.6 12.8 2.6 5 0 7.7-1.7 9.1-3C72.3 67.5 72.3 66.3 71.5 65.5zM33.5 42.7c7.9 0.1 14.4 6.5 14.5 14.5C40.1 57 33.6 50.6 33.5 42.7zM66.4 32.7c-0.1 7.9-6.5 14.4-14.5 14.5C52.1 39.2 58.5 32.8 66.4 32.7z"
                                                                            fill="#116383"
                                                                            data-fill-palette-color="accent"></path>
                                                                    </g>
                                                                </svg></g>
                                                        </svg></g>
                                                </svg></g>
                                        </svg></g>
                                </svg></g>
                        </svg></g>
                    <defs></defs>
                </svg>
                <rect width="95.481" height="92.13394866866804" fill="none" stroke="none" visibility="hidden"></rect>
            </g>
        </svg></g>
</svg>