<?xml version="1.0" encoding="UTF-8"?>
<svg version="1.1" viewBox="0 0 2000 702" xmlns="http://www.w3.org/2000/svg">
	<g transform="translate(-1.2121 -1.1726)">
		<svg width="2e3" height="702" data-background-color="#102e44" viewBox="0 0 396 139"
			xmlns="http://www.w3.org/2000/svg" xmlns:xlink="http://www.w3.org/1999/xlink">
			<g transform="translate(.24 .23218)">
				<svg width="395.52" height="138.54" viewBox="0 0 395.52 138.53563018949785">
					<svg width="395.52" height="138.54" viewBox="0 0 665.1322688351936 232.9705653884862">
						<g transform="translate(0 32.198)">
							<svg width="395.52" height="168.57" viewBox="0 0 395.52000000000004 168.5749387760392">
								<svg width="395.52" height="300.57" viewBox="0 0 395.52000000000004 200.5749387760392">
									<svg width="395.52" height="119.36" viewBox="0 0 395.52000000000004 120">
										<g>
											<svg width="395.52" height="119.36" data-palette-color="#ffffff"
												viewBox="2.1911805611129997 -35.55 158.875120440615 47.949999999999996">
												<path class="wordmark-text-0"
													d="m13.38 0.59q-3.1 0-5.14-0.57-2.04-0.56-3.27-1.4t-1.89-1.67q-0.22-0.32-0.39-0.61-0.18-0.3-0.25-0.66-0.1-0.49-0.19-1.28-0.1-0.8-0.03-1.85 0.03-0.44 0.17-0.61 0.17-0.19 0.56-0.29 0.71-0.17 1.85-0.3 1.13-0.14 1.62-0.14 0.51 0 0.83 0.2 0.32 0.19 0.76 0.66 0.49 0.51 1.68 1.3 1.2 0.8 3.69 0.8 2.39 0 3.61-1.01 1.22-1 1.22-2.78 0-0.95-0.57-1.79-0.57-0.85-2.09-1.69-1.51-0.84-4.32-1.77-4.64-1.56-6.69-3.88t-2.05-6.45q0-3.41 1.66-5.71 1.66-2.29 4.59-3.47 2.93-1.17 6.76-1.17 2.96 0 4.9 0.7 1.94 0.69 3.01 1.56 1.08 0.87 1.39 1.41 0.2 0.31 0.26 0.47t0.09 0.43q0.07 0.76 0.05 1.68-0.03 0.93-0.18 2.1-0.07 0.39-0.26 0.54-0.18 0.12-0.54 0.12-2.37 0.05-3.66-0.24-0.52-0.12-0.69-0.25-0.17-0.12-0.44-0.39-0.39-0.46-1.23-1.08-0.84-0.63-2.7-0.63-2.56 0-3.63 1.16-1.08 1.16-1.08 2.6 0 1.71 1.59 2.68 1.58 0.96 5 2.18 2.86 1 4.91 2.18 2.05 1.17 3.14 3 1.08 1.83 1.08 4.83 0 3.74-1.72 6.2-1.72 2.47-4.69 3.68-2.96 1.21-6.72 1.21zm34.18-26.2q3.56 0 5.87 1.6 2.3 1.6 3.44 4.39 1.14 2.8 1.14 6.41 0 3.91-1.34 7.03-1.33 3.13-3.91 4.96-2.59 1.83-6.42 1.83-1.98 0-3.26-0.45-1.29-0.45-2.05-1.08-0.77-0.62-1.21-1.13h-0.1v10.4q0 0.59-0.24 0.9-1.03 1.35-3.01 2.91-0.34 0.24-0.61 0.24-0.29 0-0.61-0.24-1.05-0.81-1.77-1.52-0.72-0.7-1.23-1.39-0.25-0.31-0.25-0.9v-30.1q0-0.59 0.25-0.91 0.51-0.68 1.23-1.39t1.77-1.51q0.32-0.25 0.66-0.25 0.32 0 0.66 0.25 1.03 0.8 1.76 1.54 0.73 0.73 1.29 1.51h0.12q0.42-0.51 1.27-1.24 0.86-0.74 2.43-1.3 1.58-0.56 4.12-0.56zm-3.01 19.99q2.64 0 4.09-1.84 1.46-1.84 1.46-5.33 0-6.59-5.42-6.59-2.3 0-3.4 0.94t-1.56 1.98v5.3q0 2.37 1.22 3.96 1.22 1.58 3.61 1.58zm26.42-16.55v1.81h0.09q1.84-5.08 6.6-5.08 0.61 0 1 0.06t0.53 0.11q0.37 0.12 0.37 0.56v5.89q0 0.75-0.88 0.41-0.29-0.12-0.84-0.25-0.55-0.14-1.53-0.14-2.51 0-3.93 1.84-1.41 1.85-1.41 5.02v10.65q0 0.73-0.31 1.01-0.3 0.28-1.04 0.28h-5.03q-0.73 0-1.03-0.28-0.31-0.28-0.31-1.01v-20.46q0-0.59 0.25-0.91 0.51-0.68 1.23-1.39t1.77-1.51q0.19-0.15 0.39-0.2 0.19-0.05 0.34-0.05 0.34 0 0.68 0.25 2.03 1.59 2.84 2.71 0.22 0.29 0.22 0.68zm24.21 22.78q-6.15 0-9.74-3.27t-3.59-9.74q0-6.64 3.73-9.93 3.72-3.28 9.94-3.28 6.01 0 9.62 3.23 3.62 3.24 3.62 9.54 0 6.57-3.62 10.01-3.61 3.44-9.96 3.44zm0.25-5.91q2.68 0 4.05-1.67t1.37-5.73q0-3.85-1.38-5.43-1.38-1.57-4.09-1.57-2.61 0-4.12 1.69-1.5 1.7-1.5 5.51 0 3.98 1.43 5.59t4.24 1.61zm27.29 5.91q-8.69 0-8.69-10.52l-0.03-12.4q0-0.59 0.25-0.91 1.02-1.34 3-2.9 0.34-0.25 0.61-0.25 0.32 0 0.61 0.25 1.05 0.8 1.77 1.51t1.23 1.39q0.25 0.32 0.25 0.91v11.71q0 5.3 4.2 5.3 2.07 0 3.32-1.45 1.24-1.45 1.24-3.94v-11.62q0-0.59 0.25-0.91 1.02-1.34 3-2.9 0.34-0.25 0.61-0.25 0.32 0 0.61 0.25 1.05 0.8 1.77 1.51t1.23 1.39q0.25 0.32 0.25 0.91v21.19q0 0.46-0.32 0.79t-0.81 0.33h-3.66q-0.39 0-0.69-0.11-0.31-0.11-0.58-0.43l-1.51-1.95h-0.17q-0.39 0.56-1.21 1.29-0.82 0.74-2.37 1.27-1.55 0.54-4.16 0.54zm31.96 0q-8.16 0-8.16-8.47v-11.45h-2.76q-0.73 0-1.01-0.31-0.28-0.3-0.28-1.03v-3.01q0-0.73 0.28-1.03 0.28-0.31 1.01-0.31h2.76v-3.93q0-0.59 0.24-0.9 1.03-1.35 3.01-2.91 0.34-0.24 0.61-0.24 0.29 0 0.58 0.24 1.05 0.81 1.77 1.51 0.72 0.71 1.24 1.4 0.24 0.31 0.24 0.9v3.93h4.32q0.73 0 1.02 0.31 0.28 0.3 0.28 1.03v3.01q0 0.73-0.28 1.03-0.29 0.31-1.02 0.31h-4.32v10.11q0 3.9 2.83 3.9 0.44 0 0.81-0.08 0.37-0.09 0.63-0.19 0.52-0.19 0.72-0.14 0.21 0.05 0.38 0.53l1.42 3.79q0.22 0.61-0.29 0.88-0.37 0.17-1.77 0.64-1.41 0.48-4.26 0.48z"
													fill="#fff" data-fill-palette-color="primary"></path>
											</svg>
										</g>
									</svg>
								</svg>
							</svg>
						</g>
						<g transform="translate(423.7)">
							<svg width="241.43" height="232.97" viewBox="0 0 241.43394346260823 232.9705653884862">
								<svg class="icon-icon-0" width="241.43" height="232.97"
									enable-background="new 0 0 100 100" data-fill-palette-color="accent" version="1.1"
									viewBox="27.861915579507443 28.600000000000005 44.25120988422886 42.699999999999974"
									xml:space="preserve" xmlns="http://www.w3.org/2000/svg"
									xmlns:xlink="http://www.w3.org/1999/xlink">
									<g fill="#116383" data-fill-palette-color="accent">
										<path
											d="m63.9 36.4c-0.5-0.2-1.1 0.1-1.3 0.6-1.3 3.6-4.4 6.2-8.2 6.7-0.5 0.1-0.9 0.6-0.9 1.1 0.1 0.5 0.5 0.9 1 0.9h0.1c4.5-0.6 8.3-3.7 9.8-8 0.3-0.5 0.1-1.1-0.5-1.3z"
											data-fill-palette-color="accent">
										</path>
										<path
											d="m37.3 47c-0.2-0.5-0.8-0.8-1.3-0.6s-0.8 0.8-0.6 1.3c1.5 4.3 5.3 7.4 9.8 8h0.1c0.5 0 0.9-0.4 1-0.9s-0.3-1.1-0.9-1.1c-3.7-0.5-6.8-3.1-8.1-6.7z"
											data-fill-palette-color="accent">
										</path>
										<path
											d="m71.5 65.5c-0.8-0.8-2.1-0.8-2.8 0-2 2-7.4 2.9-16.7-0.2v-0.3-13.9c10.2-0.1 18.4-8.4 18.4-18.7v-1.8c0-1.1-0.9-2-2-2h-1.8c-9.8 0-17.8 7.6-18.6 17.2-3.4-4.4-8.7-7.2-14.7-7.2h-1.8c-1.1 0-2 0.9-2 2v1.8c0 10.2 8.3 18.5 18.5 18.7v3c-10.2-2.5-18.5 0.8-18.9 0.9-1 0.4-1.5 1.6-1.1 2.6s1.6 1.5 2.6 1.1c0.1 0 9-3.5 19.1 0 5.4 1.9 9.5 2.6 12.8 2.6 5 0 7.7-1.7 9.1-3 0.7-0.8 0.7-2-0.1-2.8zm-38-22.8c7.9 0.1 14.4 6.5 14.5 14.5-7.9-0.2-14.4-6.6-14.5-14.5zm32.9-10c-0.1 7.9-6.5 14.4-14.5 14.5 0.2-8 6.6-14.4 14.5-14.5z"
											data-fill-palette-color="accent">
										</path>
									</g>
								</svg>
							</svg>
						</g>
					</svg>
				</svg>
				<rect width="395.52" height="138.54" fill="none" visibility="hidden" />
			</g>
		</svg>
	</g>
</svg>