<svg xmlns="http://www.w3.org/2000/svg" width="64" height="64" viewBox="27.8 28.6 44.3 42.7">
        <g fill="#116383">
                <path
                        d="M63.9 36.4c-.5-.2-1.1.1-1.3.6-1.3 3.6-4.4 6.2-8.2 6.7-.5.1-.9.6-.9 1.1.1.5.5.9 1 .9h.1c4.5-.6 8.3-3.7 9.8-8 .3-.5.1-1.1-.5-1.3M37.3 47c-.2-.5-.8-.8-1.3-.6s-.8.8-.6 1.3c1.5 4.3 5.3 7.4 9.8 8h.1c.5 0 .9-.4 1-.9s-.3-1.1-.9-1.1c-3.7-.5-6.8-3.1-8.1-6.7" />
                <path
                        d="M71.5 65.5c-.8-.8-2.1-.8-2.8 0-2 2-7.4 2.9-16.7-.2V51.1c10.2-.1 18.4-8.4 18.4-18.7v-1.8c0-1.1-.9-2-2-2h-1.8c-9.8 0-17.8 7.6-18.6 17.2-3.4-4.4-8.7-7.2-14.7-7.2h-1.8c-1.1 0-2 .9-2 2v1.8c0 10.2 8.3 18.5 18.5 18.7v3c-10.2-2.5-18.5.8-18.9.9-1 .4-1.5 1.6-1.1 2.6s1.6 1.5 2.6 1.1c.1 0 9-3.5 19.1 0 5.4 1.9 9.5 2.6 12.8 2.6 5 0 7.7-1.7 9.1-3 .7-.8.7-2-.1-2.8m-38-22.8c7.9.1 14.4 6.5 14.5 14.5-7.9-.2-14.4-6.6-14.5-14.5m32.9-10c-.1 7.9-6.5 14.4-14.5 14.5.2-8 6.6-14.4 14.5-14.5" />
        </g>
</svg>